<?xml version="1.0" standalone="no"?>
<!DOCTYPE svg PUBLIC "-//W3C//DTD SVG 20010904//EN"
 "http://www.w3.org/TR/2001/REC-SVG-20010904/DTD/svg10.dtd">
<svg version="1.0" xmlns="http://www.w3.org/2000/svg"
 width="800.000000pt" height="800.000000pt" viewBox="0 0 800.000000 800.000000"
 preserveAspectRatio="xMidYMid meet">
<metadata>
Created by potrace 1.14, written by Peter Selinger 2001-2017
</metadata>
<g transform="translate(0.000000,800.000000) scale(0.100000,-0.100000)"
fill="#000000" stroke="none">
<path d="M2479 5365 c-233 -44 -418 -185 -526 -399 -101 -200 -101 -452 0
-652 97 -193 253 -324 456 -384 94 -28 239 -37 322 -21 67 14 1270 318 1274
323 6 7 -882 943 -933 984 -69 54 -196 119 -274 138 -89 23 -231 28 -319 11z
m411 -821 c0 -24 -4 -44 -10 -44 -5 0 -10 16 -10 36 0 28 -3 35 -15 30 -21 -8
-19 11 2 23 26 14 33 5 33 -45z m70 49 c0 -18 -34 -93 -41 -93 -13 0 -11 17 6
50 15 28 14 30 -5 30 -11 0 -20 5 -20 10 0 6 14 10 30 10 17 0 30 -3 30 -7z
m51 -9 c12 -14 14 -14 26 2 7 10 16 15 19 11 8 -7 -54 -97 -67 -97 -6 0 -1 13
10 29 l20 28 -24 -5 c-20 -3 -25 0 -25 15 0 35 19 43 41 17z m59 -49 c15 -18
5 -35 -21 -35 -12 0 -19 7 -19 18 0 33 20 42 40 17z"/>
<path d="M2980 4570 c0 -5 5 -10 10 -10 6 0 10 5 10 10 0 6 -4 10 -10 10 -5 0
-10 -4 -10 -10z"/>
<path d="M3045 4520 c3 -5 8 -10 11 -10 2 0 4 5 4 10 0 6 -5 10 -11 10 -5 0
-7 -4 -4 -10z"/>
<path d="M3687 5374 c-16 -16 -7 -44 14 -44 15 0 20 5 17 22 -3 22 -19 33 -31
22z m23 -24 c0 -5 -4 -10 -10 -10 -5 0 -10 5 -10 10 0 6 5 10 10 10 6 0 10 -4
10 -10z"/>
<path d="M3722 5329 c-31 -47 -30 -72 1 -26 l16 22 0 -22 c1 -16 7 -23 22 -23
15 0 20 5 17 23 -2 14 -9 21 -21 21 -20 -2 -22 7 -6 23 6 6 10 16 8 22 -2 5
-19 -12 -37 -40z m48 -29 c0 -5 -4 -10 -10 -10 -5 0 -10 5 -10 10 0 6 5 10 10
10 6 0 10 -4 10 -10z"/>
<path d="M3560 5360 c-13 -8 -12 -10 3 -10 13 0 17 -8 17 -35 0 -19 5 -35 10
-35 6 0 10 20 10 45 0 46 -10 55 -40 35z"/>
<path d="M3620 5360 c-13 -8 -12 -10 3 -10 13 0 17 -8 17 -35 0 -19 5 -35 10
-35 6 0 10 20 10 45 0 46 -10 55 -40 35z"/>
<path d="M4902 5013 c-17 -7 -5 -23 13 -16 22 8 18 -21 -5 -42 -29 -26 -25
-35 18 -35 32 1 35 2 20 14 -12 9 -14 16 -7 23 6 6 9 21 7 34 -3 24 -21 32
-46 22z"/>
<path d="M4972 5008 c-17 -17 -15 -36 7 -50 18 -11 18 -13 3 -25 -16 -12 -16
-12 0 -13 23 0 48 27 48 54 0 24 -17 46 -35 46 -6 0 -16 -5 -23 -12z m38 -29
c0 -5 -7 -9 -15 -9 -15 0 -20 12 -9 23 8 8 24 -1 24 -14z"/>
<path d="M5047 5014 c-4 -4 -7 -16 -7 -26 0 -14 6 -19 23 -16 14 2 22 10 22
23 0 20 -25 32 -38 19z"/>
<path d="M5090 4975 c-31 -45 -35 -79 -5 -39 14 18 14 18 15 1 0 -13 6 -17 23
-15 30 4 31 43 0 42 -20 0 -20 1 -6 23 30 45 5 34 -27 -12z"/>
<path d="M3575 4005 c-777 -213 -743 -202 -865 -285 -52 -35 -155 -134 -198
-190 -101 -132 -161 -340 -149 -523 7 -112 27 -189 73 -286 302 -641 1208
-617 1475 39 45 112 57 208 89 745 16 275 32 528 36 563 3 34 2 62 -3 61 -4 0
-210 -56 -458 -124z m-301 -677 c8 -13 6 -22 -8 -37 -17 -19 -17 -21 -3 -21
10 0 17 -4 17 -10 0 -5 -16 -10 -35 -10 -32 0 -35 2 -25 19 5 11 15 23 20 26
16 10 12 38 -5 32 -18 -7 -30 9 -13 16 21 9 40 3 52 -15z m74 10 c18 -18 15
-75 -5 -87 -28 -15 -53 5 -53 42 0 33 15 57 35 57 6 0 16 -5 23 -12z m69 -4
c6 -15 7 -15 20 1 17 24 28 13 14 -13 -9 -16 -7 -21 9 -25 22 -6 28 -43 8 -50
-20 -7 -38 4 -38 22 0 12 -4 11 -18 -7 -23 -30 -36 -17 -15 14 14 22 14 24 -1
18 -18 -7 -31 17 -22 41 7 20 35 19 43 -1z"/>
<path d="M3314 3316 c-8 -21 3 -49 16 -41 5 3 10 15 10 25 0 25 -18 36 -26 16z"/>
<path d="M1750 1610 l0 -70 70 0 70 0 0 70 0 70 -70 0 -70 0 0 -70z"/>
<path d="M5910 1610 l0 -70 70 0 70 0 0 70 0 70 -70 0 -70 0 0 -70z"/>
<path d="M2265 1660 c3 -5 8 -10 11 -10 2 0 4 5 4 10 0 6 -5 10 -11 10 -5 0
-7 -4 -4 -10z"/>
<path d="M3680 1660 c0 -5 5 -10 10 -10 6 0 10 5 10 10 0 6 -4 10 -10 10 -5 0
-10 -4 -10 -10z"/>
<path d="M5365 1660 c3 -5 8 -10 11 -10 2 0 4 5 4 10 0 6 -5 10 -11 10 -5 0
-7 -4 -4 -10z"/>
<path d="M4531 1615 c-1 -47 1 -51 24 -53 19 -1 26 4 31 23 7 30 -1 45 -26 45
-10 0 -21 8 -23 18 -3 9 -5 -6 -6 -33z m39 -21 c0 -31 -23 -28 -28 4 -2 15 2
22 12 22 11 0 16 -9 16 -26z"/>
<path d="M5153 1653 c-20 -8 -15 -41 7 -48 11 -3 20 -13 20 -22 0 -10 -6 -14
-20 -10 -11 3 -20 1 -20 -5 0 -5 12 -8 28 -6 34 4 37 38 4 53 -25 11 -24 31 1
29 9 -1 14 2 11 7 -6 10 -12 10 -31 2z"/>
<path d="M6118 1649 c-21 -12 -24 -59 -6 -77 18 -18 46 -14 58 7 14 27 13 47
-6 65 -18 19 -23 19 -46 5z m40 -33 c5 -39 -13 -55 -35 -33 -14 13 -15 21 -5
42 15 33 36 28 40 -9z"/>
<path d="M6252 1610 c0 -39 2 -47 7 -26 9 41 31 46 31 7 0 -17 5 -31 11 -31 6
0 9 14 7 33 -2 24 -8 33 -25 35 -12 2 -24 11 -26 20 -3 9 -5 -8 -5 -38z"/>
<path d="M1940 1605 c0 -25 5 -45 10 -45 6 0 10 12 10 26 0 34 31 29 41 -6 5
-18 7 -11 7 25 0 28 -2 42 -5 33 -5 -22 -43 -24 -43 -3 0 8 -4 15 -10 15 -5 0
-10 -20 -10 -45z"/>
<path d="M2938 1643 c7 -2 12 -22 12 -44 0 -21 5 -39 10 -39 6 0 10 18 10 39
0 22 5 42 13 44 6 3 -4 5 -23 5 -19 0 -29 -2 -22 -5z"/>
<path d="M3498 1640 c-2 -6 -13 -12 -26 -13 -19 -1 -22 -7 -21 -37 l1 -35 7
30 c9 41 37 45 44 5 4 -20 12 -30 24 -30 14 0 15 2 5 9 -8 4 -13 19 -12 32 3
37 1 49 -9 49 -5 0 -11 -5 -13 -10z"/>
<path d="M3628 1638 c-9 -27 7 -73 27 -76 15 -2 16 -1 7 6 -8 5 -13 20 -12 33
3 36 1 49 -9 49 -5 0 -11 -6 -13 -12z"/>
<path d="M4360 1606 c0 -38 3 -46 18 -46 32 0 54 24 50 55 -3 26 -8 30 -35 33
-33 3 -33 3 -33 -42z m48 2 c-4 -46 -28 -49 -28 -4 0 26 4 36 16 36 11 0 14
-8 12 -32z"/>
<path d="M4608 1638 c-9 -24 12 -78 30 -78 13 0 14 2 4 9 -8 4 -13 19 -12 32
3 36 1 49 -9 49 -5 0 -11 -6 -13 -12z"/>
<path d="M6198 1638 c-8 -23 7 -71 22 -76 12 -4 13 -2 3 9 -16 16 -17 46 -2
51 7 2 6 8 -4 16 -12 10 -16 10 -19 0z"/>
<path d="M2401 1629 c-15 -6 -21 -14 -17 -25 3 -9 6 -22 6 -30 0 -8 9 -14 20
-14 11 0 20 -5 20 -11 0 -7 -11 -9 -26 -6 -16 3 -22 1 -16 -5 15 -15 46 -5 50
15 2 12 -3 17 -17 17 -12 0 -21 6 -21 15 0 8 0 18 -1 22 0 4 4 9 10 11 6 2 11
-4 11 -13 0 -9 4 -14 9 -10 10 6 11 45 1 44 -3 0 -16 -5 -29 -10z"/>
<path d="M5501 1629 c-15 -6 -21 -14 -17 -25 3 -9 6 -22 6 -30 0 -8 9 -14 20
-14 11 0 20 -5 20 -11 0 -7 -11 -9 -26 -6 -16 3 -22 1 -16 -5 15 -15 46 -5 50
15 2 12 -3 17 -17 17 -12 0 -21 6 -21 15 0 8 0 18 -1 22 0 4 4 9 10 11 6 2 11
-4 11 -13 0 -9 4 -14 9 -10 10 6 11 45 1 44 -3 0 -16 -5 -29 -10z"/>
<path d="M2035 1619 c-12 -19 4 -59 25 -59 23 0 43 32 34 54 -7 18 -49 22 -59
5z m43 -21 c-5 -32 -28 -35 -28 -4 0 17 5 26 16 26 10 0 14 -7 12 -22z"/>
<path d="M2122 1598 c-2 -35 0 -38 23 -36 22 2 25 7 24 38 -1 34 -1 34 -8 6
-9 -42 -29 -44 -34 -4 l-4 33 -1 -37z"/>
<path d="M2195 1620 c-3 -5 3 -15 15 -22 25 -16 25 -25 3 -31 -14 -4 -13 -5 3
-6 31 -1 38 26 11 40 -21 12 -21 12 -2 20 19 7 19 8 -2 8 -12 1 -25 -3 -28 -9z"/>
<path d="M2273 1595 c0 -22 2 -30 4 -17 2 12 2 30 0 40 -3 9 -5 -1 -4 -23z"/>
<path d="M2312 1593 c1 -37 1 -37 5 -5 3 18 10 32 18 32 8 0 15 -14 18 -32 4
-32 4 -32 5 5 2 33 0 37 -23 37 -23 0 -25 -4 -23 -37z"/>
<path d="M3011 1590 c1 -27 3 -29 6 -10 2 14 11 30 20 37 13 10 13 12 -6 10
-17 -1 -21 -7 -20 -37z"/>
<path d="M3073 1624 c19 -6 24 -54 6 -54 -6 0 -8 7 -5 16 4 10 1 14 -6 12 -25
-9 -13 -33 15 -34 26 -1 28 2 25 30 -2 25 -8 31 -28 33 -14 1 -18 0 -7 -3z"/>
<path d="M3130 1595 c0 -19 5 -35 10 -35 6 0 10 14 10 31 0 39 22 34 31 -7 6
-27 7 -27 8 9 1 35 -1 37 -29 37 -28 0 -30 -3 -30 -35z"/>
<path d="M3210 1616 c0 -8 9 -18 20 -21 26 -8 26 -22 0 -28 -17 -4 -17 -4 2
-3 31 1 35 31 6 41 l-23 7 25 8 25 8 -27 1 c-18 1 -28 -4 -28 -13z"/>
<path d="M3280 1580 c0 -27 5 -50 10 -50 6 0 10 6 10 14 0 7 9 16 20 19 15 4
20 14 20 36 0 28 -3 31 -30 31 -29 0 -30 -1 -30 -50z m48 18 c-5 -32 -28 -35
-28 -4 0 17 5 26 16 26 10 0 14 -7 12 -22z"/>
<path d="M3365 1619 c-12 -19 4 -59 25 -59 23 0 43 32 34 54 -7 18 -49 22 -59
5z m43 -21 c-5 -32 -28 -35 -28 -4 0 17 5 26 16 26 10 0 14 -7 12 -22z"/>
<path d="M3568 1623 c15 -3 22 -11 22 -28 0 -13 4 -26 8 -29 4 -2 6 11 4 30
-4 30 -8 34 -31 33 -23 -2 -24 -2 -3 -6z"/>
<path d="M3680 1595 c0 -19 5 -35 10 -35 6 0 10 16 10 35 0 19 -4 35 -10 35
-5 0 -10 -16 -10 -35z"/>
<path d="M3724 1616 c-11 -29 0 -51 26 -51 21 0 25 5 25 30 0 24 -5 31 -23 33
-13 2 -24 -3 -28 -12z m46 -15 c0 -11 -5 -23 -11 -27 -15 -9 -33 12 -26 30 9
23 37 20 37 -3z"/>
<path d="M3800 1595 c0 -19 5 -35 10 -35 6 0 10 14 10 31 0 39 22 34 31 -7 6
-27 7 -27 8 9 1 35 -1 37 -29 37 -28 0 -30 -3 -30 -35z"/>
<path d="M4454 1616 c-11 -28 1 -51 26 -53 l25 -3 -25 12 -25 12 28 4 c20 2
27 8 25 20 -4 22 -46 28 -54 8z m36 -6 c0 -5 -7 -10 -16 -10 -8 0 -12 5 -9 10
3 6 10 10 16 10 5 0 9 -4 9 -10z"/>
<path d="M5235 1622 c23 -8 27 -43 6 -50 -10 -3 -12 0 -8 12 4 9 2 16 -3 16
-6 0 -10 -9 -10 -20 0 -15 6 -19 25 -18 21 2 25 7 25 35 0 30 -3 33 -27 32
-23 -1 -25 -2 -8 -7z"/>
<path d="M5291 1623 c-1 -19 18 -63 27 -63 5 0 13 16 19 35 6 19 8 35 3 35 -4
0 -11 -12 -15 -27 l-7 -28 -13 30 c-7 17 -14 25 -14 18z"/>
<path d="M5373 1595 c0 -22 2 -30 4 -17 2 12 2 30 0 40 -3 9 -5 -1 -4 -23z"/>
<path d="M5400 1595 c0 -19 5 -35 10 -35 6 0 10 14 10 31 0 39 22 34 31 -7 6
-27 7 -27 8 9 1 35 -1 37 -29 37 -28 0 -30 -3 -30 -35z"/>
<path d="M5560 1615 c0 -9 7 -18 15 -21 20 -8 19 -21 -2 -27 -14 -4 -13 -5 4
-6 32 -2 39 19 13 39 -22 17 -23 18 -4 23 16 4 16 5 -3 6 -15 1 -23 -5 -23
-14z"/>
<path d="M6334 1616 c-11 -28 1 -51 26 -53 l25 -3 -25 12 -25 12 28 4 c20 2
27 8 25 20 -4 22 -46 28 -54 8z m36 -6 c0 -5 -7 -10 -16 -10 -8 0 -12 5 -9 10
3 6 10 10 16 10 5 0 9 -4 9 -10z"/>
<path d="M6411 1590 l1 -35 8 29 c5 16 15 33 22 37 8 5 5 8 -10 6 -18 -1 -22
-7 -21 -37z"/>
<path d="M3550 1580 c0 -12 7 -20 18 -20 13 0 14 2 3 9 -7 5 -10 14 -7 20 4 6
2 11 -3 11 -6 0 -11 -9 -11 -20z"/>
</g>
</svg>
